<?xml version="1.0" standalone="no"?>
<!DOCTYPE svg PUBLIC "-//W3C//DTD SVG 20010904//EN"
 "http://www.w3.org/TR/2001/REC-SVG-20010904/DTD/svg10.dtd">
<svg version="1.0" xmlns="http://www.w3.org/2000/svg"
 width="2000.000000pt" height="2000.000000pt" viewBox="0 0 2000.000000 2000.000000"
 preserveAspectRatio="xMidYMid meet">
<metadata>
Created by potrace 1.11, written by Peter Selinger 2001-2013
</metadata>
<g transform="translate(0.000000,2000.000000) scale(0.100000,-0.100000)"
fill="#000000" stroke="none">
<path d="M10890 19459 c-91 -10 -289 -48 -311 -60 -9 -4 -27 -10 -40 -13 -71
-15 -276 -99 -424 -174 -265 -135 -528 -357 -707 -595 -77 -104 -194 -310
-236 -417 -85 -216 -123 -474 -102 -695 23 -247 76 -427 201 -680 99 -199 123
-287 117 -425 -3 -84 -8 -105 -36 -162 -58 -118 -178 -210 -347 -267 -147 -49
-286 -64 -525 -58 -365 9 -684 84 -1043 243 -340 150 -608 380 -713 608 -56
123 -79 295 -54 404 12 50 2 94 -67 307 -166 509 -379 803 -642 885 -359 113
-705 -259 -831 -890 -39 -196 -50 -324 -50 -582 0 -399 70 -872 155 -1043 46
-93 65 -169 72 -295 28 -505 -343 -1191 -842 -1560 -246 -182 -464 -266 -715
-277 -167 -7 -232 5 -444 82 -500 183 -923 294 -1321 347 -192 25 -528 30
-670 10 -314 -45 -535 -163 -655 -347 -59 -91 -82 -171 -88 -301 -9 -209 53
-409 202 -653 232 -381 615 -749 1140 -1096 319 -210 835 -476 1191 -612 155
-59 409 -214 671 -410 792 -592 1366 -1433 1412 -2066 16 -212 -8 -344 -90
-517 -46 -95 -60 -114 -152 -205 -190 -188 -435 -296 -790 -350 -90 -13 -107
-19 -168 -60 -238 -158 -422 -438 -472 -717 -24 -136 -28 -217 -17 -342 23
-238 76 -416 200 -671 131 -267 263 -448 490 -675 358 -356 748 -566 1191
-641 170 -29 442 -12 620 38 522 146 960 589 1280 1291 68 150 102 205 172
275 104 105 234 129 363 68 222 -103 445 -392 706 -912 401 -802 750 -2018
750 -2615 -1 -191 -19 -272 -76 -334 -17 -18 -34 -67 -60 -173 -68 -276 -95
-547 -75 -756 52 -564 368 -918 899 -1006 140 -24 421 -16 566 15 479 103 904
384 1151 761 110 167 180 338 225 549 33 151 33 453 2 620 -72 375 -218 698
-500 1100 -52 74 -112 171 -133 215 -158 333 -172 759 -40 1205 148 497 448
916 791 1104 347 190 692 99 964 -254 40 -52 53 -83 96 -223 172 -556 411
-953 709 -1179 86 -65 245 -143 345 -169 470 -119 1014 139 1457 692 125 155
204 282 304 484 132 269 215 522 250 765 20 141 15 454 -10 563 -110 481 -425
815 -941 998 -34 12 -47 27 -87 93 -96 159 -148 345 -151 541 -2 134 5 275 14
281 12 7 -2 88 -17 100 -8 6 -10 15 -6 19 4 5 1 5 -7 0 -12 -7 -12 -10 1 -19
14 -10 14 -13 -1 -26 -8 -8 -19 -14 -23 -12 -5 1 -8 -3 -8 -9 0 -5 -4 -7 -10
-4 -5 3 -10 11 -10 16 0 6 3 8 8 6 4 -3 13 1 20 9 10 12 10 14 -3 15 -8 1 -19
3 -25 4 -5 1 -13 3 -17 4 -5 1 1 9 12 18 l20 16 -20 -8 c-11 -4 -33 -9 -49
-11 -28 -4 -29 -3 -10 11 18 14 18 14 -5 10 -14 -3 -31 1 -38 7 -9 7 -8 1 3
-18 14 -25 22 -29 47 -26 23 4 28 2 22 -9 -5 -8 -17 -20 -28 -28 -10 -7 -16
-19 -14 -25 3 -7 -1 -13 -9 -13 -21 0 -17 13 12 40 23 21 24 25 8 24 -42 0
-54 4 -52 15 2 9 -13 13 -53 11 -50 -1 -56 1 -52 17 3 10 0 21 -6 24 -14 9
-14 26 0 26 5 0 7 -6 3 -12 -6 -10 -4 -10 8 0 19 15 31 3 17 -18 -12 -20 -11
-30 1 -30 6 0 10 10 10 23 0 16 3 18 9 8 7 -11 11 -10 19 4 6 12 17 16 31 12
17 -4 21 -2 18 11 -2 9 -9 16 -16 14 -7 -1 -10 2 -6 8 12 19 48 -9 41 -33 -4
-19 -3 -20 7 -7 7 9 21 14 32 12 11 -2 16 0 12 4 -5 5 -13 10 -18 10 -5 1 -14
2 -20 3 -5 0 -7 6 -4 11 4 6 11 7 17 4 7 -4 8 -2 4 4 -4 7 -17 9 -30 6 -16 -4
-25 0 -29 10 -4 10 -13 13 -22 9 -13 -5 -14 -7 -3 -14 10 -7 9 -9 -3 -9 -13 0
-16 8 -15 33 3 40 14 60 28 51 6 -4 8 -3 5 2 -3 5 4 21 15 34 14 17 18 19 14
7 -3 -11 -2 -16 4 -12 6 3 10 13 10 21 0 10 6 13 19 9 21 -6 49 19 31 30 -13
8 -13 25 0 25 6 0 9 -5 8 -12 -2 -7 2 -12 9 -13 22 0 27 -16 6 -21 -23 -6 -40
-34 -22 -34 6 0 9 -9 6 -20 -3 -11 -1 -18 4 -14 5 3 9 13 9 22 0 11 3 13 11 5
7 -7 18 -3 36 15 20 20 27 22 34 11 5 -8 9 -10 9 -5 0 16 -49 66 -55 56 -8
-13 4 -32 15 -25 5 3 11 1 15 -5 6 -9 -7 -14 -28 -11 -4 0 -6 -3 -5 -8 2 -5 0
-9 -4 -10 -26 -3 -29 1 -14 18 15 16 15 20 2 33 -11 12 -12 18 -3 27 8 8 8 11
-3 11 -8 0 -5 7 8 19 12 10 22 21 22 23 0 3 19 25 43 50 23 25 75 80 115 122
67 72 75 77 103 71 21 -5 29 -4 25 3 -10 16 14 26 27 12 9 -10 9 -11 -2 -5
-10 6 -12 4 -5 -6 5 -8 7 -23 5 -34 -2 -11 42 48 97 130 237 355 516 640 842
857 173 115 409 219 585 259 211 46 432 19 592 -72 77 -44 193 -157 250 -242
54 -81 103 -116 288 -207 232 -114 418 -160 643 -160 92 0 132 3 122 10 -13 8
-13 10 2 10 10 0 16 7 15 19 0 11 -4 18 -8 15 -4 -2 -10 3 -13 12 -3 8 -2 12
4 9 6 -3 10 -1 10 4 0 6 -4 11 -10 11 -5 0 -12 11 -16 25 -3 14 -11 25 -18 25
-7 0 -6 4 3 9 8 5 9 11 3 15 -5 3 -7 17 -4 31 3 19 0 25 -14 26 -11 0 -13 3
-7 6 9 3 8 11 -5 31 -9 14 -12 23 -5 19 8 -5 11 -1 10 12 0 11 -4 18 -7 16 -3
-1 -14 9 -24 23 -11 14 -14 22 -8 18 7 -4 12 -3 12 3 0 5 -5 13 -11 16 -6 4
-8 14 -5 22 3 8 2 12 -2 10 -4 -3 -13 1 -19 9 -9 8 -9 15 -2 19 6 4 2 14 -11
25 -25 21 -26 31 -2 24 16 -5 16 -5 0 6 -10 6 -18 18 -18 25 0 8 -7 15 -15 15
-18 0 -19 11 -2 29 10 11 9 13 -5 8 -12 -4 -18 -1 -18 8 0 8 -7 15 -16 15 -11
0 -15 6 -11 20 3 11 1 20 -5 20 -6 0 -7 7 -4 15 4 10 -3 20 -19 27 -23 10 -30
24 -26 55 1 7 -7 9 -21 5 -21 -5 -22 -4 -9 12 12 14 12 17 1 14 -7 -2 -19 8
-27 22 -7 14 -17 24 -22 23 -8 -2 -26 43 -23 58 1 4 -6 6 -16 5 -9 0 -17 5
-17 12 0 6 -4 13 -10 14 -5 1 -18 9 -27 17 -13 11 -14 17 -5 23 9 5 9 10 -2
20 -11 11 -13 11 -6 -1 5 -9 3 -12 -6 -9 -8 3 -13 11 -11 17 3 15 -15 14 -21
-1 -3 -8 -6 -6 -6 5 -1 9 -6 17 -12 17 -6 0 -9 9 -6 20 3 11 1 18 -3 15 -5 -3
-30 16 -57 41 -26 26 -61 55 -78 66 -16 10 -25 18 -20 18 6 1 -5 7 -22 15 -18
8 -33 19 -33 25 0 5 -7 10 -15 10 -8 0 -23 9 -32 20 -10 11 -23 20 -31 20 -7
0 -10 5 -7 10 3 6 -3 10 -15 10 -12 0 -19 4 -16 9 7 10 -22 25 -42 22 -7 -1
-15 5 -18 13 -3 9 -10 14 -14 11 -5 -3 -11 -1 -15 5 -4 6 -11 8 -16 5 -5 -4
-9 -1 -9 4 0 6 -7 11 -15 11 -8 0 -14 6 -13 13 2 6 -3 11 -9 9 -7 -1 -13 4
-13 10 0 10 -2 10 -8 0 -7 -9 -20 -6 -57 13 -26 14 -54 24 -62 21 -8 -3 -11
-1 -8 4 3 6 -1 10 -10 10 -9 0 -13 5 -9 11 4 8 0 8 -15 0 -19 -11 -25 -8 -23
10 1 4 -9 5 -21 2 -18 -4 -19 -3 -7 6 12 8 8 10 -16 5 -20 -4 -34 -1 -42 9 -8
9 -21 13 -34 9 -14 -3 -19 -1 -14 6 10 16 -17 15 -33 0 -10 -11 -11 -10 -6 2
4 11 -3 15 -27 16 -18 1 -55 4 -83 9 -27 4 -58 7 -67 7 -9 0 -19 6 -22 14 -3
9 -11 12 -17 8 -15 -9 -117 -12 -131 -3 -6 4 -22 3 -34 -1 -15 -6 -26 -5 -30
1 -3 6 -17 8 -31 4 -18 -4 -23 -3 -17 7 4 7 -3 4 -16 -7 -16 -14 -24 -16 -27
-8 -4 10 -13 9 -40 -2 -42 -18 -46 -18 -37 -4 5 8 1 8 -13 0 -14 -7 -23 -7
-30 0 -8 8 -13 7 -17 0 -11 -17 -26 -13 -20 4 4 8 1 15 -5 15 -21 0 -6 57 114
425 141 429 219 757 262 1103 25 198 25 813 0 992 -85 606 -295 1124 -640
1574 -265 346 -569 608 -982 846 -130 75 -516 264 -548 269 -19 2 -67 33 -67
42 0 6 -7 9 -15 5 -10 -3 -15 1 -15 14 0 10 -8 21 -17 23 -11 3 -7 5 10 6 15
0 27 7 27 14 0 9 2 9 8 0 6 -10 14 -9 36 2 16 8 37 15 48 15 13 0 18 5 15 13
-4 10 2 13 21 10 22 -4 24 -2 12 7 -12 8 -9 9 13 4 15 -3 27 -2 27 3 0 5 9 9
21 10 12 1 27 10 33 19 7 9 18 14 24 10 6 -3 13 -2 17 4 4 6 11 8 16 5 5 -4 9
-1 9 5 0 6 5 8 10 5 6 -3 10 -2 10 4 0 5 19 19 43 30 54 27 77 45 77 60 0 7 5
9 11 6 5 -4 20 4 33 17 12 12 28 24 36 26 8 2 24 13 35 25 32 33 64 57 75 57
6 0 10 4 10 9 0 5 23 26 51 47 35 27 49 44 45 56 -2 10 1 18 8 18 6 0 19 9 29
20 9 11 23 20 30 20 7 0 13 9 14 19 2 23 33 61 50 61 7 0 13 7 13 16 0 8 4 13
9 10 5 -3 11 7 14 23 3 16 14 37 24 47 10 9 18 22 18 28 0 6 9 10 19 9 12 -1
15 2 8 9 -6 6 -1 18 14 35 13 14 21 29 18 34 -3 5 5 22 17 38 12 16 18 34 15
40 -4 6 -1 9 7 5 9 -3 17 4 22 18 13 40 13 48 5 43 -5 -3 -11 -1 -15 5 -3 5 1
10 9 10 9 0 16 9 16 20 0 11 5 20 12 20 6 0 8 3 5 7 -4 3 1 15 10 26 10 11 12
17 6 13 -7 -4 -13 -2 -13 3 0 6 6 11 14 11 8 0 18 4 21 10 3 5 0 7 -9 4 -13
-5 -15 11 -6 36 1 3 2 8 1 13 0 4 7 7 17 8 10 0 12 3 5 6 -10 3 -9 8 2 20 21
21 19 39 -2 22 -14 -11 -14 -9 1 9 21 25 31 56 14 46 -6 -4 -6 1 1 13 6 11 7
23 4 27 -3 3 -1 6 6 6 7 0 9 5 6 10 -4 6 1 22 10 37 9 14 13 23 9 20 -5 -3
-10 6 -10 19 -1 15 4 24 12 24 8 0 14 4 14 10 0 5 -8 7 -17 4 -15 -5 -15 -4 1
6 10 7 14 15 9 19 -6 3 -13 19 -17 35 l-7 30 20 -25 21 -24 -11 27 c-9 21 -9
31 0 42 7 9 8 16 2 20 -6 4 -6 18 0 38 6 21 5 36 -2 45 -11 12 -5 17 15 14 5
-1 5 4 -1 11 -6 7 -9 21 -8 31 2 9 -1 15 -6 11 -5 -3 -7 -9 -4 -14 3 -4 -1
-10 -9 -13 -7 -3 -30 -57 -50 -121 -20 -64 -45 -130 -56 -148 -13 -22 -16 -38
-10 -48 10 -17 -1 -42 -41 -88 -16 -18 -29 -39 -29 -46 0 -7 -19 -37 -42 -65
-37 -45 -61 -61 -173 -116 -490 -240 -1420 -381 -1984 -300 -343 49 -576 157
-702 325 -58 76 -75 122 -114 295 -63 278 -119 438 -226 645 -84 161 -175 286
-309 421 -330 333 -808 493 -1300 438z m1960 -2193 c0 -2 -7 -7 -16 -10 -8 -3
-12 -2 -9 4 6 10 25 14 25 6z m30 -6 c0 -5 -2 -10 -4 -10 -3 0 -8 5 -11 10 -3
6 -1 10 4 10 6 0 11 -4 11 -10z m-83 -20 c-3 -11 -1 -20 4 -20 5 0 9 6 9 13 0
8 3 7 10 -3 11 -18 -9 -33 -26 -19 -11 9 -8 49 3 49 3 0 3 -9 0 -20z m63 -5
c0 -8 5 -15 11 -15 5 0 7 5 3 11 -4 7 -1 10 7 7 8 -3 13 -11 11 -18 -1 -6 3
-10 9 -8 7 2 23 -7 37 -21 15 -15 21 -26 13 -29 -13 -4 30 -42 48 -42 6 0 11
-5 11 -11 0 -5 -6 -7 -12 -4 -7 3 -5 0 6 -7 10 -7 29 -23 41 -35 13 -12 26
-19 29 -15 4 3 4 -1 1 -10 -4 -11 0 -18 14 -23 12 -3 19 -10 17 -14 -3 -4 10
-15 29 -24 19 -9 35 -21 35 -27 0 -6 12 -15 26 -20 14 -6 23 -14 20 -19 -3 -5
8 -14 25 -22 18 -7 42 -23 55 -36 13 -13 26 -23 30 -23 3 0 15 -12 26 -26 16
-20 23 -23 29 -12 7 10 9 9 9 -4 0 -9 5 -20 12 -24 7 -4 8 -3 4 5 -5 8 0 8 20
-1 l27 -13 -24 -6 c-13 -4 -17 -8 -9 -8 11 -1 10 -4 -4 -13 -27 -16 -83 -29
-141 -33 -77 -6 -187 -16 -220 -20 -16 -2 -52 -7 -79 -10 -27 -3 -54 -9 -59
-12 -5 -3 -13 1 -18 8 -5 8 -9 9 -9 4 0 -6 -17 -12 -37 -13 -21 -2 -41 -8 -45
-15 -6 -9 -8 -8 -8 2 0 10 -3 11 -13 2 -8 -6 -16 -8 -19 -6 -3 3 -18 1 -34 -6
-16 -6 -44 -13 -63 -15 -19 -3 -39 -8 -44 -11 -6 -4 -23 -8 -36 -9 -20 -2 -22
-1 -11 6 13 8 13 10 -2 10 -9 0 -21 -6 -25 -14 -10 -17 -53 -31 -53 -17 0 6
-5 11 -11 11 -5 0 -8 -4 -5 -9 3 -5 -1 -12 -10 -15 -8 -3 -12 -2 -9 4 11 18
-8 11 -33 -12 -14 -13 -22 -17 -17 -9 8 15 -15 12 -67 -8 -13 -5 -25 -9 -28
-9 -3 0 -30 -10 -60 -21 -69 -26 -70 -26 -70 4 0 14 5 25 10 25 6 0 10 -4 10
-10 0 -5 4 -10 10 -10 5 0 7 7 4 15 -4 8 -14 15 -23 15 -14 0 -14 2 -1 10 10
6 11 10 3 10 -7 0 -13 5 -13 11 0 7 10 5 25 -5 36 -24 42 -20 14 10 -24 26
-24 26 -1 15 15 -8 22 -8 22 -1 0 6 5 8 10 5 6 -4 8 -10 5 -15 -3 -5 0 -12 7
-16 7 -4 10 -4 6 1 -4 4 -3 16 3 26 8 17 6 18 -20 15 -19 -2 -28 1 -24 7 4 6
0 8 -10 4 -24 -9 -21 0 4 14 17 9 20 8 14 -2 -6 -8 -4 -10 5 -4 10 6 9 11 -4
21 -13 9 -14 14 -5 20 7 4 15 2 17 -4 2 -7 9 -9 14 -6 7 4 8 2 4 -4 -4 -7 -1
-12 9 -12 9 0 14 -4 10 -9 -9 -16 35 -35 49 -21 8 8 7 10 -6 5 -11 -4 -18 -2
-18 4 0 7 7 14 15 17 17 7 10 25 -8 20 -7 -1 -9 -1 -4 1 4 3 7 12 7 22 0 9 7
26 15 37 15 19 15 19 9 -1 -6 -18 -5 -18 15 3 12 12 24 22 26 22 8 0 0 -25
-10 -32 -6 -5 -5 -8 3 -8 8 0 16 9 19 21 3 12 11 18 19 15 8 -3 14 0 14 7 0 8
4 6 10 -3 5 -8 10 -10 10 -4 0 16 -25 35 -34 27 -4 -4 -4 0 0 10 4 13 10 15
19 7 9 -7 16 -6 25 5 12 14 10 16 -16 11 -16 -2 -32 -5 -36 -5 -3 -1 -8 -8
-10 -16 -2 -13 -5 -12 -15 4 -11 17 -10 19 2 15 9 -4 18 3 24 17 5 13 10 18
10 12 1 -7 8 -13 16 -13 9 0 12 6 9 18 -5 16 -4 16 9 -1 10 -12 17 -14 22 -7
12 20 24 0 15 -25 -7 -19 -6 -23 5 -18 8 3 12 9 9 15 -3 5 4 17 16 25 16 11
19 18 11 26 -15 15 -14 30 2 24 8 -3 14 1 14 9 0 7 -4 11 -9 8 -13 -8 -9 8 6
25 13 14 12 16 -9 17 -21 2 -23 -2 -20 -27 2 -21 0 -27 -8 -22 -7 4 -4 -4 5
-19 16 -25 15 -38 -4 -38 -5 0 -7 4 -3 9 3 6 -3 8 -15 6 -23 -4 -36 10 -19 21
8 4 9 3 5 -4 -5 -8 -2 -10 9 -6 14 6 14 8 -2 20 -17 13 -17 14 4 20 16 4 21
12 18 32 -2 15 -4 31 -4 35 -1 5 -6 5 -13 1 -7 -5 -8 -3 -3 5 5 9 10 10 18 2
9 -9 16 -5 30 11 18 22 18 22 8 1 -16 -31 -14 -48 2 -34 8 6 16 8 19 5 7 -6
48 27 48 39 0 4 -4 6 -9 3 -5 -4 -7 3 -4 14 6 22 18 26 29 8 4 -7 3 -8 -4 -4
-7 4 -12 3 -12 -3 0 -21 18 -19 39 3 14 15 30 22 42 19 18 -5 23 5 22 45 -1 6
3 12 7 12 4 0 5 10 3 23 -4 18 0 23 16 23 11 0 17 -5 14 -11 -3 -5 0 -5 7 2
11 10 11 15 -1 29 -9 12 -10 15 -1 10 6 -4 12 -3 12 1 0 5 16 17 35 27 22 12
31 22 24 27 -6 4 -8 12 -5 18 10 16 26 14 26 -4z m-232 -157 c-2 -7 11 -15 27
-18 l30 -6 -24 -13 c-14 -8 -21 -9 -17 -2 4 6 2 11 -3 11 -16 0 -51 -38 -51
-55 0 -8 -5 -15 -10 -15 -7 0 -6 8 1 23 7 12 12 23 11 25 -6 8 0 22 7 17 16
-9 24 15 11 30 -10 12 -9 15 4 15 9 0 15 -5 14 -12z m77 -8 c3 -6 -1 -7 -9 -4
-18 7 -21 14 -7 14 6 0 13 -4 16 -10z m-218 -156 c-3 -3 -12 -4 -19 -1 -8 3
-5 6 6 6 11 1 17 -2 13 -5z m-13 -29 c3 -8 1 -15 -4 -15 -6 0 -10 7 -10 15 0
8 2 15 4 15 2 0 6 -7 10 -15z m-41 -20 c-3 -9 -8 -14 -10 -11 -3 3 -2 9 2 15
9 16 15 13 8 -4z m-71 -94 c-4 -10 -1 -12 8 -6 8 5 11 4 6 -3 -9 -16 -36 -3
-29 14 3 8 0 14 -7 14 -6 0 -8 4 -5 10 9 14 34 -12 27 -29z m-57 -89 c-3 -3
-11 0 -18 7 -9 10 -8 11 6 5 10 -3 15 -9 12 -12z m-131 -177 c-4 -8 -10 -13
-15 -10 -4 3 -6 12 -3 20 4 8 10 13 15 10 4 -3 6 -12 3 -20z m-31 -30 c-7 -21
-12 -19 -10 4 0 11 5 18 9 15 4 -3 5 -11 1 -19z m6267 -6050 c0 -12 -19 -12
-23 0 -4 9 -1 12 9 8 7 -3 14 -7 14 -8z m-3710 -1689 c0 -3 -4 -8 -10 -11 -5
-3 -10 -1 -10 4 0 6 5 11 10 11 6 0 10 -2 10 -4z m30 -31 c-13 -15 -30 -12
-30 6 0 6 4 8 9 4 5 -3 13 0 16 6 4 5 9 8 12 5 3 -3 0 -12 -7 -21z m-84 -58
c1 -26 -5 -27 -34 -4 -9 7 -10 13 -1 24 17 20 34 10 35 -20z m324 -107 c0 -5
-5 -10 -11 -10 -5 0 -7 5 -4 10 3 6 8 10 11 10 2 0 4 -4 4 -10z"/>
<path d="M12802 17171 c-10 -6 -9 -11 4 -22 15 -12 17 -12 9 0 -6 11 -4 13 10
7 15 -5 16 -4 5 9 -7 8 -13 15 -14 15 0 0 -7 -4 -14 -9z"/>
<path d="M12740 17109 c0 -4 8 -10 17 -13 15 -6 15 -8 3 -16 -12 -8 -12 -10 4
-10 12 0 16 5 12 15 -3 8 2 18 10 23 11 6 7 9 -15 9 -17 0 -31 -4 -31 -8z"/>
<path d="M12670 17010 c-18 -12 -2 -12 25 0 13 6 15 9 5 9 -8 0 -22 -4 -30 -9z"/>
<path d="M12635 16980 c-3 -5 1 -10 9 -10 9 0 16 5 16 10 0 6 -4 10 -9 10 -6
0 -13 -4 -16 -10z"/>
<path d="M12670 16971 c0 -22 26 -35 36 -19 4 7 3 8 -4 4 -8 -5 -12 0 -12 13
0 12 -4 21 -10 21 -5 0 -10 -9 -10 -19z"/>
<path d="M12595 16946 c-12 -13 -13 -32 -2 -40 4 -3 5 -3 2 0 -2 4 0 15 6 26
12 23 9 31 -6 14z"/>
<path d="M12630 16950 c0 -5 6 -10 13 -10 7 0 8 -3 2 -8 -11 -8 -18 -32 -10
-32 3 0 14 5 24 12 17 10 17 13 2 30 -17 20 -31 24 -31 8z"/>
<path d="M12671 16893 c-7 -8 -11 -16 -8 -19 2 -2 10 2 17 11 17 20 9 27 -9 8z"/>
<path d="M12535 16810 c-3 -5 -1 -10 4 -10 6 0 11 5 11 10 0 6 -2 10 -4 10 -3
0 -8 -4 -11 -10z"/>
<path d="M12473 16759 c-2 -23 3 -25 10 -4 4 8 3 16 -1 19 -4 3 -9 -4 -9 -15z"/>
<path d="M12497 16753 c-4 -3 -7 -11 -7 -17 0 -6 5 -5 12 2 6 6 9 14 7 17 -3
3 -9 2 -12 -2z"/>
<path d="M12417 16723 c-13 -12 -7 -33 9 -33 8 0 12 5 8 11 -3 6 0 15 7 20 11
7 11 9 -2 9 -9 0 -19 -3 -22 -7z"/>
<path d="M12355 16681 c-3 -5 -2 -12 3 -15 5 -3 9 1 9 9 0 17 -3 19 -12 6z"/>
<path d="M12380 16680 c0 -5 7 -11 15 -11 24 -2 29 -4 45 -14 13 -8 13 -7 1 8
-8 10 -16 15 -19 13 -2 -3 -13 -1 -23 5 -13 6 -19 6 -19 -1z"/>
<path d="M12396 16638 c3 -4 9 -8 15 -8 5 0 9 4 9 8 0 5 -7 9 -15 9 -8 0 -12
-4 -9 -9z"/>
<path d="M12290 16590 c0 -5 7 -7 15 -4 8 4 15 8 15 10 0 2 -7 4 -15 4 -8 0
-15 -4 -15 -10z"/>
<path d="M12330 16590 c0 -5 5 -10 10 -10 6 0 10 5 10 10 0 6 -4 10 -10 10 -5
0 -10 -4 -10 -10z"/>
<path d="M12426 16573 c-6 -14 -5 -15 5 -6 7 7 10 15 7 18 -3 3 -9 -2 -12 -12z"/>
<path d="M14620 8656 c0 -9 5 -16 10 -16 6 0 10 4 10 9 0 6 -4 13 -10 16 -5 3
-10 -1 -10 -9z"/>
<path d="M13711 18834 c-82 -22 -150 -62 -216 -129 -98 -97 -145 -210 -145
-345 0 -135 47 -248 145 -345 97 -98 210 -145 345 -145 135 0 248 47 345 145
33 33 72 83 87 111 77 143 77 325 0 468 -34 65 -133 164 -198 198 -105 56
-249 73 -363 42z"/>
<path d="M7782 18750 c-247 -50 -341 -350 -166 -531 146 -151 407 -111 503 76
74 144 26 323 -109 410 -65 41 -156 59 -228 45z"/>
<path d="M15265 18691 c-11 -5 -33 -23 -50 -41 -26 -27 -30 -38 -30 -90 0 -56
3 -62 38 -97 35 -35 41 -38 97 -38 56 0 62 3 97 38 35 35 38 41 38 97 0 55 -3
62 -37 96 -30 30 -45 37 -85 40 -26 2 -57 0 -68 -5z"/>
<path d="M2652 17870 c-163 -23 -373 -110 -503 -209 -81 -62 -184 -169 -239
-252 -62 -91 -127 -235 -157 -346 -23 -87 -26 -117 -26 -263 0 -147 3 -176 27
-265 31 -119 115 -294 185 -386 62 -81 169 -184 252 -239 91 -62 235 -127 346
-157 87 -23 117 -26 263 -26 146 0 176 3 263 26 111 30 255 95 346 157 83 55
190 158 252 239 70 92 154 267 185 386 24 89 27 118 27 265 0 147 -3 176 -27
265 -31 119 -115 294 -185 386 -196 258 -497 413 -821 424 -69 2 -153 0 -188
-5z"/>
<path d="M2550 10165 c-243 -49 -442 -220 -526 -450 -37 -103 -50 -219 -36
-321 25 -167 84 -286 202 -404 118 -118 237 -177 404 -202 145 -20 308 14 443
93 74 44 198 168 242 242 158 270 123 598 -89 830 -160 175 -411 258 -640 212z"/>
<path d="M18618 9953 c7 -3 16 -2 19 1 4 3 -2 6 -13 5 -11 0 -14 -3 -6 -6z"/>
<path d="M14975 9060 c-3 -5 -1 -10 4 -10 6 0 11 5 11 10 0 6 -2 10 -4 10 -3
0 -8 -4 -11 -10z"/>
<path d="M14998 9049 c-8 -21 4 -44 25 -45 16 -2 17 0 4 15 -8 9 -16 23 -19
30 -4 13 -5 13 -10 0z"/>
<path d="M14949 9023 c-13 -16 -12 -17 4 -4 9 7 17 15 17 17 0 8 -8 3 -21 -13z"/>
<path d="M14905 8969 c-11 -16 -1 -19 13 -3 7 8 8 14 3 14 -5 0 -13 -5 -16
-11z"/>
<path d="M15000 8970 c0 -5 5 -10 11 -10 5 0 7 5 4 10 -3 6 -8 10 -11 10 -2 0
-4 -4 -4 -10z"/>
<path d="M14816 8867 c3 -10 9 -15 12 -12 3 3 0 11 -7 18 -10 9 -11 8 -5 -6z"/>
<path d="M14916 8851 c-3 -5 2 -15 12 -22 15 -12 16 -12 5 2 -7 9 -10 19 -6
22 3 4 4 7 0 7 -3 0 -8 -4 -11 -9z"/>
<path d="M14770 8809 c0 -6 -6 -9 -13 -6 -7 3 -13 -3 -13 -13 0 -10 6 -16 16
-15 8 2 17 4 20 4 9 1 7 41 -2 41 -4 0 -8 -5 -8 -11z"/>
<path d="M14891 8788 c8 -15 13 -17 25 -7 16 13 19 23 4 14 -5 -3 -10 -2 -10
3 0 5 -7 9 -14 9 -12 0 -13 -5 -5 -19z"/>
<path d="M14880 8735 c-8 -9 -8 -15 -2 -15 12 0 26 19 19 26 -2 2 -10 -2 -17
-11z"/>
<path d="M14950 8739 c0 -6 -9 -8 -22 -4 -22 7 -22 6 2 -11 14 -10 27 -17 29
-15 2 1 8 -3 12 -11 6 -9 9 -9 9 -1 0 6 -4 14 -10 18 -5 3 -7 12 -3 20 3 8 0
15 -6 15 -6 0 -11 -5 -11 -11z"/>
<path d="M14905 8710 c-3 -6 -11 -7 -17 -4 -7 5 -8 2 -3 -5 5 -9 10 -10 18 -2
7 7 14 5 23 -7 8 -9 14 -12 14 -6 0 18 -27 37 -35 24z"/>
<path d="M18040 8714 c-14 -2 -52 -9 -85 -15 -335 -58 -641 -290 -797 -604
-80 -160 -112 -303 -112 -495 0 -152 9 -213 51 -345 92 -286 297 -522 568
-657 160 -80 303 -112 495 -112 152 0 213 9 345 51 286 92 522 297 657 568 80
160 112 303 112 495 0 152 -9 213 -51 345 -55 169 -145 317 -273 445 -157 156
-343 258 -565 306 -68 15 -295 27 -345 18z"/>
<path d="M7030 3544 c-369 -43 -670 -249 -828 -569 -77 -157 -105 -278 -105
-455 0 -177 28 -298 105 -455 101 -204 259 -362 463 -463 157 -77 278 -105
455 -105 177 0 298 28 455 105 204 101 362 259 463 463 77 157 105 278 105
455 0 177 -28 298 -105 455 -140 282 -400 484 -708 550 -70 15 -242 26 -300
19z"/>
<path d="M14507 3130 c-213 -54 -356 -265 -320 -473 31 -182 168 -319 350
-350 125 -22 264 24 358 118 214 214 138 573 -145 685 -62 25 -184 35 -243 20z"/>
</g>
</svg>
